static_grf.mot
version=1
nRows=30
nColumns 19
inDegrees=yes
endheader
time	1_ground_force_vx	1_ground_force_vy	1_ground_force_vz	1_ground_force_px	1_ground_force_py	1_ground_force_pz	1_ground_torque_x	1_ground_torque_y	1_ground_torque_z	2_ground_force_vx	2_ground_force_vy	2_ground_force_vz	2_ground_force_px	2_ground_force_py	2_ground_force_pz	2_ground_torque_x	2_ground_torque_y	2_ground_torque_z
            1.351500	           -2.857473	          274.461930	          -21.698825	           -0.243977	            0.005930	           -0.337456	           -0.015694	            1.507428	           -0.119177	            1.286443	          269.514569	           25.269735	           -0.254525	            0.005457	           -0.667499	           -0.004233	           -0.886820	           -0.083148
            1.352000	           -2.720675	          274.102802	          -22.021704	           -0.244290	            0.005929	           -0.337270	           -0.015461	            1.557714	           -0.125148	            1.197334	          268.225687	           25.124392	           -0.254710	            0.005455	           -0.667049	           -0.003857	           -0.864114	           -0.080941
            1.352500	           -2.857650	          273.561222	          -21.840257	           -0.244687	            0.005930	           -0.337405	           -0.016031	            1.534642	           -0.122521	            1.385460	          268.041720	           25.264439	           -0.254655	            0.005454	           -0.666656	           -0.004447	           -0.860262	           -0.081085
            1.353000	           -2.629166	          273.202111	          -22.163364	           -0.244426	            0.005931	           -0.337700	           -0.015632	            1.624316	           -0.131772	            1.618359	          268.411015	           25.218725	           -0.254743	            0.005454	           -0.666891	           -0.005596	           -0.928197	           -0.087209
            1.353500	           -2.491981	          274.464164	          -22.204150	           -0.244161	            0.005931	           -0.337597	           -0.014382	            1.584029	           -0.128148	            1.339274	          267.857411	           25.263802	           -0.254514	            0.005455	           -0.666823	           -0.004527	           -0.905336	           -0.085390
            1.354000	           -2.995943	          273.382276	          -22.161680	           -0.244213	            0.005929	           -0.337172	           -0.017329	            1.581326	           -0.128190	            1.480427	          267.674280	           25.122301	           -0.254742	            0.005452	           -0.666359	           -0.004999	           -0.903947	           -0.084839
            1.354500	           -2.675497	          273.383124	          -22.345901	           -0.244237	            0.005930	           -0.337467	           -0.015209	            1.554024	           -0.127023	            1.526592	          267.858757	           25.076010	           -0.254669	            0.005453	           -0.666544	           -0.004962	           -0.870690	           -0.081511
            1.355000	           -2.767019	          272.481808	          -22.349538	           -0.244084	            0.005932	           -0.337811	           -0.015658	            1.541924	           -0.126472	            1.431542	          268.226867	           25.030436	           -0.254696	            0.005455	           -0.667123	           -0.004856	           -0.909956	           -0.084915
            1.355500	           -2.766716	          275.184387	          -22.016952	           -0.244525	            0.005929	           -0.337220	           -0.015773	            1.568785	           -0.125515	            1.389345	          266.937652	           25.025856	           -0.254749	            0.005451	           -0.665965	           -0.004470	           -0.858906	           -0.080524
            1.356000	           -2.950441	          273.382874	          -22.299362	           -0.244484	            0.005930	           -0.337397	           -0.016885	            1.564572	           -0.127619	            1.572112	          268.227207	           25.077304	           -0.254408	            0.005454	           -0.666566	           -0.005444	           -0.928877	           -0.086843
            1.356500	           -2.583877	          273.743673	          -22.344582	           -0.244204	            0.005930	           -0.337426	           -0.014821	            1.570154	           -0.128165	            1.475130	          269.147299	           25.174485	           -0.254692	            0.005457	           -0.667553	           -0.004937	           -0.900860	           -0.084261
            1.357000	           -2.812652	          273.202272	          -22.208764	           -0.244404	            0.005931	           -0.337709	           -0.016090	            1.562892	           -0.127048	            1.386021	          267.858417	           25.029142	           -0.254804	            0.005453	           -0.666542	           -0.004591	           -0.887225	           -0.082904
            1.357500	           -2.628938	          273.201718	          -22.071652	           -0.244172	            0.005931	           -0.337753	           -0.015028	            1.561772	           -0.126174	            1.617695	          268.595156	           25.219383	           -0.255145	            0.005454	           -0.667145	           -0.005645	           -0.937309	           -0.088007
            1.358000	           -2.813386	          274.104553	          -22.434179	           -0.244569	            0.005930	           -0.337404	           -0.016022	            1.560967	           -0.127758	            1.478454	          268.226534	           25.171200	           -0.254554	            0.005454	           -0.666564	           -0.005013	           -0.909388	           -0.085340
            1.358500	           -2.491865	          273.202531	          -22.255417	           -0.244000	            0.005931	           -0.337712	           -0.014500	            1.589730	           -0.129501	            1.618339	          268.411182	           25.171797	           -0.254814	            0.005455	           -0.667101	           -0.005597	           -0.928314	           -0.087058
            1.359000	           -2.765931	          273.380944	          -21.841258	           -0.244052	            0.005930	           -0.337391	           -0.015830	            1.564595	           -0.125000	            1.480530	          267.673443	           25.356941	           -0.254664	            0.005451	           -0.666009	           -0.005075	           -0.917623	           -0.086927
            1.359500	           -2.720642	          273.922566	          -22.022476	           -0.244705	            0.005928	           -0.336980	           -0.015575	            1.568115	           -0.126071	            1.574709	          267.491147	           24.933892	           -0.254340	            0.005454	           -0.666386	           -0.005276	           -0.896234	           -0.083541
            1.360000	           -2.721196	          274.464119	          -22.203581	           -0.244413	            0.005928	           -0.336984	           -0.015317	            1.544881	           -0.124978	            1.479762	          267.858420	           25.122958	           -0.254950	            0.005452	           -0.666613	           -0.004809	           -0.870532	           -0.081649
            1.360500	           -2.583925	          273.383338	          -22.391984	           -0.244160	            0.005930	           -0.337541	           -0.014483	            1.532349	           -0.125510	            1.433639	          267.673608	           25.263105	           -0.254523	            0.005453	           -0.666429	           -0.004939	           -0.922133	           -0.087031
            1.361000	           -2.721032	          273.562821	          -22.207446	           -0.244574	            0.005930	           -0.337530	           -0.015757	            1.584195	           -0.128603	            1.337904	          268.226027	           25.171260	           -0.254977	            0.005453	           -0.666702	           -0.004516	           -0.905279	           -0.084955
            1.361500	           -2.767543	          274.104562	          -22.434293	           -0.243802	            0.005928	           -0.337063	           -0.015905	            1.575295	           -0.128931	            1.523933	          268.595320	           25.078638	           -0.254391	            0.005455	           -0.666863	           -0.005058	           -0.891542	           -0.083243
            1.362000	           -2.812490	          273.562411	          -22.115507	           -0.244189	            0.005930	           -0.337517	           -0.015917	            1.548158	           -0.125157	            1.621079	          267.673950	           25.356882	           -0.254587	            0.005453	           -0.666503	           -0.005681	           -0.938023	           -0.088859
            1.362500	           -2.720495	          273.742074	          -21.977394	           -0.244163	            0.005929	           -0.337166	           -0.015633	            1.573025	           -0.126290	            1.475795	          268.963158	           25.173828	           -0.254568	            0.005456	           -0.667370	           -0.004929	           -0.898303	           -0.084077
            1.363000	           -2.996092	          274.824204	          -22.109641	           -0.244178	            0.005928	           -0.336936	           -0.016527	            1.515985	           -0.121961	            1.669820	          267.122473	           25.120250	           -0.254853	            0.005450	           -0.665805	           -0.005754	           -0.920522	           -0.086566
            1.363500	           -2.629136	          274.283312	          -22.067014	           -0.244479	            0.005930	           -0.337494	           -0.014779	            1.541841	           -0.124046	            1.479762	          267.858420	           25.122958	           -0.254737	            0.005454	           -0.666824	           -0.004830	           -0.874339	           -0.082006
            1.364000	           -2.949986	          273.382088	          -22.115938	           -0.244564	            0.005929	           -0.337230	           -0.016587	            1.537133	           -0.124350	            1.665209	          268.411184	           25.218706	           -0.254604	            0.005455	           -0.667031	           -0.005725	           -0.922829	           -0.086705
            1.364500	           -2.583991	          273.743870	          -22.390438	           -0.244072	            0.005930	           -0.337501	           -0.014621	            1.548874	           -0.126688	            1.386186	          267.857078	           25.404566	           -0.254454	            0.005454	           -0.666472	           -0.004494	           -0.868401	           -0.082362
            1.365000	           -2.812945	          273.563197	          -22.298930	           -0.244310	            0.005930	           -0.337410	           -0.016352	            1.590276	           -0.129628	            1.244204	          268.225688	           25.171300	           -0.254583	            0.005454	           -0.666698	           -0.003820	           -0.823410	           -0.077272
            1.365500	           -2.628744	          273.381560	          -21.979167	           -0.244094	            0.005929	           -0.337204	           -0.015093	            1.569636	           -0.126195	            1.709983	          268.964506	           25.032945	           -0.254816	            0.005454	           -0.666957	           -0.006344	           -0.997897	           -0.092876
            1.366000	           -2.491946	          273.022431	          -22.302046	           -0.244196	            0.005930	           -0.337568	           -0.014982	            1.641406	           -0.134080	            1.663859	          268.779694	           25.173092	           -0.254575	            0.005455	           -0.666910	           -0.005704	           -0.921393	           -0.086295
